<?xml version="1.0" encoding="UTF-8" standalone="no"?>
<!-- Created with Inkscape (http://www.inkscape.org/) -->

<svg
   xmlns:dc="http://purl.org/dc/elements/1.1/"
   xmlns:cc="http://creativecommons.org/ns#"
   xmlns:rdf="http://www.w3.org/1999/02/22-rdf-syntax-ns#"
   xmlns:svg="http://www.w3.org/2000/svg"
   xmlns="http://www.w3.org/2000/svg"
   xmlns:sodipodi="http://sodipodi.sourceforge.net/DTD/sodipodi-0.dtd"
   xmlns:inkscape="http://www.inkscape.org/namespaces/inkscape"
   id="svg3370"
   version="1.1"
   inkscape:version="0.91 r13725"
   width="1024"
   height="294"
   viewBox="0 0 1024 294"
   sodipodi:docname="Bosch.svg">
  <metadata
     id="metadata3376">
    <rdf:RDF>
      <cc:Work
         rdf:about="">
        <dc:format>image/svg+xml</dc:format>
        <dc:type
           rdf:resource="http://purl.org/dc/dcmitype/StillImage" />
        <dc:title></dc:title>
      </cc:Work>
    </rdf:RDF>
  </metadata>
  <defs
     id="defs3374" />
  <sodipodi:namedview
     pagecolor="#ffffff"
     bordercolor="#666666"
     borderopacity="1"
     objecttolerance="10"
     gridtolerance="10"
     guidetolerance="10"
     inkscape:pageopacity="0"
     inkscape:pageshadow="2"
     inkscape:window-width="1280"
     inkscape:window-height="961"
     id="namedview3372"
     showgrid="false"
     inkscape:zoom="0.40039062"
     inkscape:cx="512"
     inkscape:cy="147"
     inkscape:window-x="-8"
     inkscape:window-y="-8"
     inkscape:window-maximized="1"
     inkscape:current-layer="svg3370" />
  <path
     style="fill:#000000"
     d="M 126.00001,263.99029 C 71.747925,256.55957 31.595358,218.92509 21.472574,166.01807 19.541105,155.9232 19.557887,133.35071 21.504564,122.99756 26.433385,96.784189 39.015229,73.955399 58.667134,55.568919 72.56358,42.567279 86.26425,34.426219 104.00001,28.631709 c 69.75821,-22.7909702 142.86322,21.32057 155.56165,93.865851 2.54065,14.51457 2.80429,24.46831 0.99326,37.5 -3.97154,28.57808 -16.51898,52.96687 -37.24251,72.38925 -19.6429,18.40961 -43.16843,29.10481 -70.52299,32.06125 -11.72125,1.26681 -14.55126,1.21845 -26.78941,-0.45777 z m 43,-7.33604 c 21.69154,-5.83444 38.53911,-15.43624 53,-30.20589 9.00907,-9.20143 10.44809,-10.9508 9.00804,-10.9508 -0.58894,0 -1.32884,0.67242 -1.64421,1.49426 -0.31537,0.82184 -0.95983,1.25542 -1.43214,0.96352 -0.47231,-0.2919 -1.77515,0.38568 -2.89522,1.50575 -1.12006,1.12006 -2.03647,1.55433 -2.03647,0.96504 0,-0.58928 -0.70714,-0.36428 -1.57143,0.5 -0.86428,0.86429 -1.81917,1.57143 -2.12197,1.57143 -0.59414,0 -0.5358,-0.0835 7.75972,-11.10472 3.06147,-4.0674 6.96758,-9.87028 8.68024,-12.89528 10.54739,-18.62941 15.67844,-43.59318 13.29133,-64.66551 -0.95066,-8.39206 -4.64767,-23.05804 -5.57797,-22.12774 -0.22002,0.22001 0.4865,4.80701 1.57003,10.19332 2.37907,11.82658 2.63038,30.97274 0.54931,41.84954 -8.3797,43.79675 -42.22741,77.54728 -85.57926,85.33356 -10.00183,1.7964 -26.75947,1.76186 -37.30361,-0.0769 -4.71107,-0.82155 -9.34384,-1.19507 -10.29504,-0.83006 -1.17598,0.45126 -1.49805,0.28924 -1.00639,-0.50629 0.39769,-0.64345 0.24651,-1.16992 -0.33595,-1.16992 -0.58246,0 -1.05902,0.45381 -1.05902,1.00847 0,0.62017 -0.67383,0.67859 -1.75,0.15173 -0.9625,-0.47121 -4.51383,-1.77674 -7.89184,-2.90119 -7.740735,-2.57668 -18.242065,-8.68739 -28.886145,-16.8088 -4.55128,-3.47261 -8.61651,-6.00703 -9.03386,-5.63203 -0.41734,0.375 -0.46661,0.17031 -0.10949,-0.45487 0.35712,-0.62518 -0.031,-1.70133 -0.86257,-2.39145 -1.27522,-1.05834 -1.41693,-0.95868 -0.90528,0.6367 0.47347,1.47636 0.12031,1.34282 -1.609341,-0.60856 -1.218762,-1.375 -2.668058,-2.36696 -3.220657,-2.20435 -0.552599,0.16261 -2.118881,-0.73739 -3.480626,-2 -2.16266,-2.00521 -2.080644,-1.70586 0.648262,2.36613 4.63889,6.92201 17.160552,18.14068 26.959522,24.15414 15.65115,9.60484 25.957625,13.5016 45.142035,17.06767 1.375,0.25559 10.15,0.31299 19.5,0.12755 13.08545,-0.25952 18.72701,-0.80168 24.5,-2.35445 z m -2.72611,-13.08797 c 36.14081,-9.37877 63.78976,-37.00182 73.96257,-73.89329 3.08446,-11.18572 3.08446,-39.16514 0,-50.35086 -13.83959,-50.188961 -60.13749,-83.385871 -108.67635,-77.924041 -26.03176,2.92922 -46.797125,13.18111 -64.731555,31.95806 -14.46384,15.14332 -22.681158,30.671461 -26.972536,50.969591 -2.679787,12.67533 -2.161189,33.4588 1.139623,45.67182 4.684952,17.33436 14.767371,34.23125 27.929303,46.80609 17.00266,16.24424 33.086495,24.16333 59.075055,29.08637 6.04135,1.14442 30.67196,-0.35099 38.27389,-2.32374 z M 96.398965,221.46597 c -5.88984,-2.91547 -17.6278,-13.08682 -23.95575,-20.75848 -6.31058,-7.65062 -13.290139,-20.69497 -16.431759,-30.70993 -3.13587,-9.99663 -3.91701,-31.92189 -1.553283,-43.59796 4.840831,-23.91218 17.735972,-43.561481 37.835012,-57.652041 7.20609,-5.05188 11.248065,-5.58679 12.731565,-1.6849 0.53639,1.41081 0.97525,10.86081 0.97525,21 l 0,18.434901 34.50001,0 34.5,0 0,-18.825681 c 0,-18.3853 0.0541,-18.87655 2.31445,-21 1.27295,-1.19588 3.41849,-2.17432 4.76787,-2.17432 4.78064,0 16.94191,9.57822 24.98205,19.67588 11.49296,14.43407 17.89801,29.612781 20.57497,48.758631 3.81834,27.30912 -5.52771,55.25116 -25.13934,75.15955 -10.34685,10.50342 -18.37484,15.90515 -22.20815,14.94305 -5.27344,-1.32354 -5.29185,-1.40065 -5.29185,-22.15955 l 0,-19.37756 -34.5,0 -34.50001,0 0,19.4433 c 0,18.95853 -0.0554,19.4821 -2.22251,21 -2.76752,1.93845 -2.46358,1.95801 -7.378525,-0.47489 z m 85.101045,-23.30174 c 0,-10.94445 -0.3805,-17.7618 -1,-17.91667 -0.63209,-0.15802 -1.10041,6.49775 -1.27291,18.09097 -0.21573,14.49794 -0.006,18.25206 1,17.91667 0.9665,-0.32217 1.27291,-4.67694 1.27291,-18.09097 z M 201.00005,187.837 c 9.46548,-14.37296 13.59731,-29.71221 12.76027,-47.37195 -0.34029,-7.17943 -1.07399,-11.82627 -2.26285,-14.3316 -0.9676,-2.03907 -1.8647,-3.57881 -1.99355,-3.42165 -0.12886,0.15717 0.4024,4.33576 1.18055,9.28576 3.27494,20.83238 -1.76589,40.67007 -15.10524,59.44528 -2.51857,3.54491 -4.57922,6.88585 -4.57922,7.42432 0,1.92514 5.36619,-3.99383 10.00004,-11.03016 z m -109.150645,1.16056 c -0.86214,-8.05588 -0.23054,-50.95668 0.77541,-52.66891 0.58299,-0.99231 6.35888,2.12286 6.47487,3.49215 0.26322,3.10748 1.712975,-4.50165 1.800635,-9.4508 0.0587,-3.31505 0.63943,-6.07551 1.41319,-6.71767 1.95569,-1.62307 76.31294,-1.70969 78.26314,-0.0912 1.25818,1.04421 1.25134,1.34465 -0.0528,2.31805 -1.21917,0.90995 -1.54734,4.56581 -1.76109,19.61835 l -0.26271,18.5 -36.25,0.26247 c -23.01754,0.16667 -36.25001,0.62296 -36.25001,1.25 0,0.63223 13.29957,0.98753 36.96483,0.98753 35.52257,0 37.0052,-0.0755 38,-1.93426 0.56931,-1.06381 1.03514,-6.76588 1.03514,-12.67123 0,-8.42196 0.34368,-11.11676 1.59396,-12.4983 0.87667,-0.96872 2.22667,-1.5185 3,-1.22175 0.84859,0.32563 1.40604,-0.0976 1.40604,-1.06744 0,-0.88385 0.5625,-1.49449 1.25,-1.35699 0.96491,0.19298 1.25,-4.08333 1.25,-18.75 0,-10.45 -0.36502,-21.475001 -0.81116,-24.500001 l -0.81116,-5.5 4.15342,4 c 5.43228,5.23161 9.22863,10.779651 14.03157,20.505901 3.9831,8.06605 6.03942,9.39851 7.48336,4.84907 0.48193,-1.51842 0.92763,-1.70676 1.97736,-0.83556 1.12857,0.93663 1.17939,0.48557 0.30393,-2.69735 -3.15641,-11.47573 -15.46694,-27.538171 -29.19077,-38.087321 -1.77016,-1.36067 -2.64271,-2.77631 -2.2853,-3.7077 0.39268,-1.02331 -0.22747,-1.70885 -1.93312,-2.13694 -1.3812,-0.34666 -2.82781,-0.31496 -3.2147,0.0705 -0.38689,0.3854 -0.92843,9.77695 -1.20343,20.87009 l -0.5,20.169361 -35,0.19703 c -19.25,0.10836 -35.56251,0.22086 -36.25001,0.25 -0.6875,0.0291 -1.25,0.72797 -1.25,1.55297 0,1.91005 -2.38739,1.94308 -3.95459,0.0547 -1.6006,-1.9286 -1.48211,-39.323591 0.13075,-41.266961 1.48874,-1.79383 0.4295,-2.65856 -2.379585,-1.94263 -3.50405,0.89305 -15.65431,10.97378 -21.62198,17.93916 -14.37745,16.781141 -21.306271,35.729341 -21.287835,58.215731 0.0098,11.94744 3.03851,27.81185 4.610365,24.14908 0.43687,-1.01801 0.39124,-2.14301 -0.10141,-2.5 -1.13175,-0.82012 -1.924769,-11.6957 -1.797335,-24.64908 0.100369,-10.20233 3.526065,-26.5 5.570185,-26.5 0.52221,0 0.7276,-0.35899 0.45644,-0.79775 -0.27117,-0.43876 -0.0796,-1.45126 0.42567,-2.25 0.50528,-0.79874 0.96002,-1.00225 1.01052,-0.45225 0.38341,4.17542 1.82473,6.43403 4.13818,6.48469 0.38466,0.008 2.62296,-3.68206 4.974,-8.20106 4.41575,-8.48762 15.03376,-22.783631 16.92199,-22.783631 0.58922,0 0.89757,0.3375 0.68524,0.75 -4.51613,8.77338 -4.2806,5.67837 -4.2806,56.250001 0,38.21581 0.27063,48.1415 1.3846,50.78206 0.76153,1.80514 1.50686,3.15514 1.65629,3 0.14943,-0.15513 -0.16174,-4.33206 -0.69149,-9.28206 z M 200.56345,175.06661 c 9.09011,-19.67435 8.89973,-42.35875 -0.53005,-63.15568 -1.59938,-3.52735 -3.16118,-6.41337 -3.47067,-6.41337 -0.3095,0 -0.56272,17.325 -0.56272,38.5 0,21.175 0.25428,38.5 0.56507,38.5 0.31079,0 2.11005,-3.34393 3.99837,-7.43095 z m -115.791625,-50.38487 -0.27182,-18.68418 -3.2425,6.7115 c -5.0759,10.50637 -7.48331,20.7032 -7.49145,31.73091 -0.008,11.36401 1.92127,19.58328 7.05675,30.05759 l 3.6772,7.5 0.27182,-19.31582 c 0.1495,-10.6237 0.1495,-27.7237 0,-38 z m 90.228185,19.31582 0,-16.5 -34.5,0 -34.50001,0 0,16.5 0,16.5 34.50001,0 34.5,0 0,-16.5 z M 30.055422,177.55144 c -0.442766,-0.85463 -1.599099,-6.86979 -2.56963,-13.36702 -2.391676,-16.01111 -1.667708,-34.28351 1.904453,-48.06695 2.522771,-9.7343 11.536025,-29.651851 15.587868,-34.446191 2.323425,-2.74919 3.953555,-2.15556 3.574062,1.30154 -0.372233,3.39095 1.253269,2.27331 6.508844,-4.47526 19.061016,-24.47584 45.686071,-38.9659 77.618611,-42.2421 9.59798,-0.98474 12.85192,-0.89917 23,0.60483 30.12746,4.46503 54.95051,19.07693 72.842,42.87788 4.76854,6.34356 6.48069,7.47202 7.22118,4.75939 0.32577,-1.19339 0.21786,-1.22721 -0.52793,-0.16546 -0.73111,1.04086 -1.05539,0.88333 -1.47357,-0.71582 -0.31162,-1.19161 -0.0805,-1.95996 0.55187,-1.83453 0.59843,0.1187 1.27053,-0.62498 1.49357,-1.65262 0.2814,-1.29652 0.0227,-1.63184 -0.84512,-1.09549 -0.82324,0.5088 -0.99885,0.36555 -0.51387,-0.41917 1.12894,-1.82666 -9.32066,-14.08442 -18.84178,-22.10208 -8.38656,-7.06226 -20.19843,-14.39246 -30.58597,-18.98102 -3.025,-1.33626 -5.95,-2.85653 -6.5,-3.37839 -0.6407,-0.60791 -0.49536,-0.66095 0.40451,-0.14761 0.94879,0.54124 1.16972,0.42131 0.6809,-0.36961 -0.39798,-0.64395 -1.1298,-0.91978 -1.62626,-0.61295 -0.49646,0.30683 -1.92787,-0.10868 -3.1809,-0.92335 -8.49146,-5.52081 -41.85752,-7.02892 -59.77825,-2.7019 -36.121385,8.72162 -65.436309,32.79073 -81.020111,66.5218 -8.182089,17.710101 -12.291276,42.039481 -10.10461,59.826681 1.336358,10.87045 5.250934,26.16532 6.273359,24.511 0.391491,-0.63344 0.349539,-1.85096 -0.09323,-2.7056 z M 501.00001,220.9494 c -12.75152,-2.90558 -26.25166,-10.60507 -35.91686,-20.48431 -7.08548,-7.24241 -11.29852,-14.29329 -15.16501,-25.37999 -4.34658,-12.46331 -5.88131,-20.68335 -5.89757,-31.58754 -0.0511,-34.23982 14.53087,-60.796161 40.39055,-73.558481 20.22061,-9.97931 40.75534,-9.91887 61.44109,0.18084 7.7538,3.78574 10.83558,6.04554 18.03132,13.2219 6.29692,6.27997 9.57172,10.49214 11.93123,15.34638 7.44689,15.320571 10.33219,27.671741 10.35091,44.309361 0.0282,25.09847 -6.8857,43.12551 -22.66566,59.09721 -12.63402,12.78755 -27.39524,19.11426 -46.5,19.93007 -6.1938,0.26449 -11.76214,-0.10979 -16,-1.07544 z m 26.62708,-39.76287 c 6.50833,-3.29802 13.71375,-11.31126 16.23836,-18.05887 5.173,-13.82607 4.84682,-30.15068 -0.84667,-42.37451 -5.78437,-12.41894 -11.47528,-17.20833 -22.86695,-19.24451 -16.84476,-3.010881 -29.91883,6.62014 -35.62297,26.24167 -3.21612,11.06309 -1.59444,28.81787 3.55391,38.90947 7.90656,15.49815 25.13664,21.82768 39.54432,14.52675 z m 112.87292,39.88972 c -8.77922,-1.71733 -20.33783,-5.86229 -27.5,-9.8616 -5.89764,-3.29321 -21,-14.5332 -21,-15.62933 0,-1.06362 23.18424,-26.08776 24.16967,-26.08776 0.49201,0 4.36761,2.42103 8.61245,5.38007 18.07552,12.60028 31.89019,16.37743 41.99987,11.48342 7.34069,-3.55357 10.21593,-11.09925 6.76912,-17.76465 -2.30994,-4.46693 -5.70991,-5.99041 -21.34536,-9.56455 -24.70319,-5.64695 -33.07268,-9.37672 -41.49775,-18.49297 -17.32211,-18.74318 -16.81255,-45.218501 1.20022,-62.360031 18.75901,-17.85167 45.58416,-21.55907 73.76662,-10.19498 8.27376,3.33625 20.30218,10.62085 23.65533,14.32603 1.70602,1.88514 1.42161,2.31156 -9.38156,14.06587 -6.1275,6.666981 -11.34729,12.121791 -11.59954,12.121791 -0.25224,0 -3.43926,-1.79771 -7.08226,-3.99491 -9.82109,-5.923371 -16.64547,-8.224301 -24.76681,-8.350441 -5.46587,-0.0849 -7.92692,0.3815 -11.22939,2.12812 -10.36885,5.483901 -9.48765,18.112381 1.57267,22.537851 2.1179,0.84741 9.20708,2.6742 15.75373,4.05952 21.86509,4.62682 31.93508,8.93847 40.71408,17.43248 12.3335,11.93313 15.22649,34.78625 6.5912,52.067 -5.68364,11.37396 -19.30513,21.79973 -33.57325,25.69665 -8.01099,2.18798 -27.04586,2.72053 -35.82904,1.00242 z m 140.5,-0.56056 c -13.19941,-3.4944 -23.38431,-9.34593 -33.05051,-18.98851 -7.13916,-7.12172 -9.31458,-10.09769 -13.17951,-18.02962 -6.84557,-14.04902 -9.11172,-24.36114 -9.1199,-41.5 -0.008,-16.65035 2.14114,-26.99188 8.37259,-40.28944 8.8081,-18.796001 25.35167,-32.443621 45.97733,-37.929021 8.63304,-2.29595 26.14555,-2.28013 35,0.0316 14.96508,3.90715 29.78329,13.8123 38.56959,25.78164 3.16331,4.30928 3.50524,5.25728 2.32024,6.43272 -0.76441,0.75824 -7.90664,5.647531 -15.87163,10.865081 l -14.4818,9.48647 -4.857,-5.44942 c -6.65036,-7.46154 -12.19768,-10.54102 -20.13627,-11.178261 -9.53047,-0.76501 -15.42722,1.663151 -23.67301,9.748061 -8.55885,8.39187 -10.87133,14.17141 -11.60354,29.00054 -1.28298,25.98354 11.09039,43.86187 31.64624,45.72581 9.68914,0.87858 19.35674,-3.79362 25.30183,-12.228 l 3.00313,-4.26058 15.89111,10.51952 c 8.74011,5.78573 15.89111,11.09194 15.89111,11.79158 0,1.87994 -6.91045,10.28673 -12.83251,15.61117 -6.30887,5.67222 -13.2498,9.67339 -23.16749,13.35516 -10.2954,3.82199 -28.63804,4.51143 -40,1.50347 z m -475,-78.01813 0,-77.000001 40.75,0.0148 c 44.11549,0.016 48.22741,0.40639 58.35937,5.54064 14.51918,7.35743 22.62227,22.28345 21.69441,39.961461 -0.55681,10.60857 -3.8273,17.61543 -11.29535,24.1997 l -5.34054,4.70853 4.68648,2.67656 c 6.22947,3.55779 12.71624,10.74982 15.98522,17.72318 2.32771,4.96544 2.66041,6.9322 2.66041,15.72701 0,9.58831 -0.17182,10.39952 -3.72581,17.59054 -2.41346,4.88329 -5.50256,9.2006 -8.77002,12.25693 -5.79054,5.41638 -17.04447,11.1067 -24.89066,12.58548 -3.11021,0.58618 -23.28892,1.01519 -47.75,1.01519 l -42.36351,0 0,-77 z m 79.5255,41.98424 c 8.86853,-5.48105 8.44244,-19.37497 -0.76636,-24.98964 -2.93708,-1.79076 -5.06256,-1.98749 -21.50914,-1.99086 l -18.25,-0.004 0,14.5 0,14.5 18.63197,0 c 16.93517,0 18.92899,-0.18357 21.89353,-2.01576 z m -6.54543,-59.73579 c 9.31101,-4.67802 10.66264,-17.66473 2.50625,-24.08055 -2.57974,-2.029221 -3.83484,-2.167901 -19.62118,-2.167901 l -16.86514,0 0,14.000001 0,14 15.25,-0.002 c 12.52288,-10e-4 15.87233,-0.31423 18.73007,-1.75 z m 492.01993,17.75155 0,-77.000001 20.48443,0 20.48442,0 0.26558,28.25 0.26557,28.250001 20.5,0.21856 c 11.275,0.12021 21.5125,-8.7e-4 22.75,-0.26905 l 2.25,-0.48761 0,-27.980951 0,-27.98095 20.50002,0 20.5,0 0,77.000001 0,77 -20.4854,0 -20.48529,0 -0.26467,-30.25 -0.26466,-30.25 -22.5,0 -22.5,0 -0.26466,30.25 -0.26467,30.25 -20.48533,0 -20.48534,0 0,-77 z"
     id="path3380"
     inkscape:connector-curvature="0" />
</svg>
