<?xml version="1.0" encoding="UTF-8" standalone="no"?>
<!-- Created with Inkscape (http://www.inkscape.org/) -->

<svg
   xmlns:dc="http://purl.org/dc/elements/1.1/"
   xmlns:cc="http://creativecommons.org/ns#"
   xmlns:rdf="http://www.w3.org/1999/02/22-rdf-syntax-ns#"
   xmlns:svg="http://www.w3.org/2000/svg"
   xmlns="http://www.w3.org/2000/svg"
   xmlns:sodipodi="http://sodipodi.sourceforge.net/DTD/sodipodi-0.dtd"
   xmlns:inkscape="http://www.inkscape.org/namespaces/inkscape"
   id="svg3336"
   version="1.1"
   inkscape:version="0.91 r13725"
   width="500"
   height="500"
   viewBox="0 0 500 500"
   sodipodi:docname="cat.svg">
  <metadata
     id="metadata3342">
    <rdf:RDF>
      <cc:Work
         rdf:about="">
        <dc:format>image/svg+xml</dc:format>
        <dc:type
           rdf:resource="http://purl.org/dc/dcmitype/StillImage" />
        <dc:title></dc:title>
      </cc:Work>
    </rdf:RDF>
  </metadata>
  <defs
     id="defs3340" />
  <sodipodi:namedview
     pagecolor="#ffffff"
     bordercolor="#666666"
     borderopacity="1"
     objecttolerance="10"
     gridtolerance="10"
     guidetolerance="10"
     inkscape:pageopacity="0"
     inkscape:pageshadow="2"
     inkscape:window-width="1280"
     inkscape:window-height="961"
     id="namedview3338"
     showgrid="false"
     inkscape:zoom="1.528"
     inkscape:cx="250"
     inkscape:cy="250"
     inkscape:window-x="-8"
     inkscape:window-y="-8"
     inkscape:window-maximized="1"
     inkscape:current-layer="svg3336" />
  <path
     style="fill:#000000"
     d="M 99.76195,363.05814 C 84.299921,358.11532 72.885391,345.49955 68.530449,328.5399 c -2.274872,-8.85914 -2.266528,-164.79176 0.0093,-174.44683 4.375084,-18.56076 18.151028,-31.63413 37.609421,-35.69132 12.09423,-2.52172 31.32865,-1.87648 42.36001,1.42101 10.74158,3.21087 23.20086,13.26188 27.79194,22.41999 C 181.48722,152.58773 182,156.85883 182,189.7101 l 0,30.2899 -22.5,0 -22.5,0 -0.006,-24.75 c -0.003,-13.79549 -0.45866,-26.38133 -1.02925,-28.43572 -3.09197,-11.13254 -17.84362,-11.84277 -20.99106,-1.01063 -0.73449,2.52779 -0.97921,26.83048 -0.77407,76.87349 0.29688,72.42477 0.32145,73.20616 2.38989,76 3.41551,4.6133 7.01959,5.89668 11.85987,4.22319 3.1993,-1.10614 4.5229,-2.33772 6.3002,-5.86222 2.15982,-4.28306 2.25,-5.49548 2.25,-30.25 L 137,261 l 22.5,0 22.5,0 0,22.8185 c 0,27.69332 -0.61691,30.57244 -8.28656,38.67348 -2.86739,3.02868 -14.43844,13.8175 -25.71344,23.97516 l -20.5,18.46847 -11,-0.0216 c -7.8671,-0.0154 -12.63425,-0.54401 -16.73805,-1.85589 z M 148,364.65639 c 0,-0.50472 112.95795,-102.10688 113.88338,-102.43455 0.63693,-0.22553 71.8043,65.48641 103.35566,95.4328 L 372.97808,365 260.48904,365 C 198.62007,365 148,364.84538 148,364.65639 Z M 371.75,347.36381 353,329.79975 l 0,-80.37448 0,-80.37448 -15.75,-0.2754 -15.75,-0.27539 0,-23.5 0,-23.5 57.25,-0.25819 57.25,-0.25819 0,24.00819 0,24.00819 -16,0 -16,0 0,98 0,98 -6.75,-0.0361 -6.75,-0.0361 -18.75,-17.56406 z m -52.80352,-49.22288 c -8.00443,-7.50251 -24.02743,-22.50305 -35.60668,-33.33453 l -21.05316,-19.6936 -34.37445,30.87914 c -18.90595,16.98352 -34.45369,30.79564 -34.55054,30.6936 -0.13607,-0.14338 30.54211,-154.33323 35.70116,-179.43554 l 1.07899,-5.25 31.86171,0 c 29.47927,0 31.90069,0.13086 32.38292,1.75 1.26345,4.24223 39.62242,186.71215 39.3819,187.33594 -0.14758,0.38275 -6.81741,-5.4425 -14.82185,-12.94501 z M 274.03254,232.25 c 0.15371,-3.54318 -11.6533,-66.97524 -12.20374,-65.56345 -0.38888,0.9974 -3.02042,15.31345 -5.84787,31.81345 -2.82744,16.5 -5.37862,31.0125 -5.66928,32.25 -0.52578,2.23855 -0.46684,2.25 11.57994,2.25 6.65963,0 12.12305,-0.3375 12.14095,-0.75 z"
     id="path3346"
     inkscape:connector-curvature="0" />
</svg>
