<?xml version="1.0" encoding="UTF-8" standalone="no"?>
<!-- Created with Inkscape (http://www.inkscape.org/) -->

<svg
   xmlns:dc="http://purl.org/dc/elements/1.1/"
   xmlns:cc="http://creativecommons.org/ns#"
   xmlns:rdf="http://www.w3.org/1999/02/22-rdf-syntax-ns#"
   xmlns:svg="http://www.w3.org/2000/svg"
   xmlns="http://www.w3.org/2000/svg"
   xmlns:sodipodi="http://sodipodi.sourceforge.net/DTD/sodipodi-0.dtd"
   xmlns:inkscape="http://www.inkscape.org/namespaces/inkscape"
   id="svg3372"
   version="1.1"
   inkscape:version="0.91 r13725"
   width="307.20001"
   height="217.2"
   viewBox="0 0 307.20001 217.2"
   sodipodi:docname="maz.svg">
  <metadata
     id="metadata3378">
    <rdf:RDF>
      <cc:Work
         rdf:about="">
        <dc:format>image/svg+xml</dc:format>
        <dc:type
           rdf:resource="http://purl.org/dc/dcmitype/StillImage" />
        <dc:title></dc:title>
      </cc:Work>
    </rdf:RDF>
  </metadata>
  <defs
     id="defs3376" />
  <sodipodi:namedview
     pagecolor="#ffffff"
     bordercolor="#666666"
     borderopacity="1"
     objecttolerance="10"
     gridtolerance="10"
     guidetolerance="10"
     inkscape:pageopacity="0"
     inkscape:pageshadow="2"
     inkscape:window-width="1280"
     inkscape:window-height="961"
     id="namedview3374"
     showgrid="false"
     inkscape:zoom="1.0865562"
     inkscape:cx="153.60001"
     inkscape:cy="108.6"
     inkscape:window-x="-8"
     inkscape:window-y="-8"
     inkscape:window-maximized="1"
     inkscape:current-layer="svg3372" />
  <path
     style="fill:#000000"
     d="M 85.350003,169.8811 C 48.720002,162.53173 18.695316,156.47099 18.62848,156.41279 c -0.06684,-0.0582 3.715469,-15.19365 8.405123,-33.63431 L 35.560246,89.25 81.530127,89.174046 C 106.81356,89.132268 127.5,89.152893 127.5,89.219874 c 0,0.06698 -0.46175,1.316163 -1.02611,2.775957 L 125.44778,94.65 81.043791,94.725984 c -41.957219,0.0718 -44.412974,0.104862 -44.567174,0.6 C 36.132862,96.429801 22.507758,153.70672 22.577,153.7569 c 0.04015,0.0291 3.988001,0.4821 8.773001,1.00667 4.785,0.52457 17.812501,1.95705 28.950001,3.18328 75.411868,8.30283 89.210598,9.80506 91.349998,9.94503 1.80283,0.11796 6.39363,-0.29844 18.45001,-1.67346 8.8275,-1.00676 24.42,-2.77558 34.65,-3.93069 10.23,-1.15512 22.0425,-2.49207 26.25,-2.97101 4.2075,-0.47894 18.045,-2.04498 30.75,-3.4801 12.705,-1.43511 23.13386,-2.63806 23.17525,-2.67322 0.0756,-0.0642 -3.0472,-13.11517 -11.77585,-49.2134 l -2.17622,-9 -44.87418,-0.07597 -44.87418,-0.07598 -0.59524,-2.024022 c -0.32738,-1.113213 -0.6851,-2.395275 -0.79493,-2.849025 l -0.1997,-0.825 46.15752,0.0038 46.15753,0.0037 2.6254,10.721259 c 3.30421,13.493261 7.84244,31.996901 11.09831,45.250911 l 2.51293,10.22965 -7.36832,1.52852 c -4.05258,0.84066 -14.59082,3.02895 -23.41832,4.86283 -31.15026,6.47135 -62.47258,12.96961 -81.75,16.96019 -10.725,2.22016 -20.06604,4.17222 -20.75785,4.3379 -0.69182,0.16568 -1.63682,0.28854 -2.1,0.27303 -0.46319,-0.0155 -30.81216,-6.04133 -67.442157,-13.39069 z M 151.35,152.11519 c -0.99,-0.62014 -4.25892,-2.62118 -7.26426,-4.44676 l -5.46428,-3.31923 -0.78597,1.7004 c -0.43228,0.93522 -0.99215,2.20761 -1.24415,2.82753 l -0.45819,1.12713 -19.80392,-0.0771 -19.803918,-0.0771 -3.024987,-9 c -1.663746,-4.95 -3.06444,-9.05625 -3.112656,-9.125 -0.192543,-0.27454 -0.602283,0.57272 -4.441296,9.18366 l -3.986313,8.94134 -10.644649,0.0788 -10.644645,0.0787 -1.293987,-2.47875 c -0.711693,-1.36331 -2.28537,-4.36875 -3.497058,-6.67875 -1.211691,-2.31 -2.767905,-5.31375 -3.458253,-6.675 -0.690348,-1.36125 -1.344453,-2.475 -1.453566,-2.475 -0.10911,0 -0.557121,0.97875 -0.995574,2.175 -0.438456,1.19625 -1.960077,5.31375 -3.381381,9.15 l -2.584189,6.975 -8.4666,0 -8.466602,0 5.973317,-23.925 c 3.285324,-13.15875 6.175044,-24.63375 6.421602,-25.5 L 39.916762,99 l 9.216619,0.0048 9.216621,0.0048 2.60508,6.52019 c 5.710905,14.2937 9.360705,23.16971 9.523563,23.16054 0.09425,-0.005 3.15402,-6.65406 6.799501,-14.775 l 6.62814,-14.765345 8.284023,-0.07972 8.284021,-0.07972 0.30089,1.129722 c 1.06265,3.98992 3.90059,14.4766 6.04972,22.35473 l 2.51655,9.22499 4.83327,0 4.83327,0 2.62271,-7.72499 c 3.15368,-9.28893 5.54091,-16.28352 10.31571,-30.225005 9.23859,-26.974938 15.61674,-45.623196 17.90494,-52.35 1.37511,-4.0425 2.6618,-7.755 2.85931,-8.25 0.35201,-0.882195 0.38151,-0.834711 1.49105,2.4 0.62256,1.815 5.67945,16.26 11.23753,32.1 5.55807,15.84 12.88204,36.731255 16.27547,46.424995 l 6.16989,17.625 28.68268,-0.007 28.68269,-0.007 -1.35167,-1.26805 c -0.74342,-0.69743 -2.61661,-2.4488 -4.16264,-3.89195 -2.51455,-2.34722 -2.76746,-2.67793 -2.39833,-3.13616 0.22695,-0.28174 1.86337,-2.13848 3.63649,-4.12609 l 3.22385,-3.61382 -21.32828,-0.15 -21.32828,-0.15 -2.35503,-7.5 c -1.29527,-4.125 -2.4321,-7.80375 -2.52629,-8.175 L 196.48858,99 l 35.39415,0 35.39415,0 0.30021,1.125 c 0.16512,0.61875 1.12781,4.60606 2.1393,8.86069 l 1.83909,7.73569 -3.02774,3.1435 c -1.66525,1.72893 -3.02773,3.25802 -3.02773,3.39799 0,0.13996 2.2128,2.08383 4.91734,4.3197 l 4.91734,4.06523 1.99735,8.2011 c 1.09855,4.5106 2.11486,8.63985 2.25848,9.1761 l 0.26113,0.975 -54.1117,0 -54.1117,0 -1.39408,-2.69919 c -0.76674,-1.48456 -1.48184,-2.64552 -1.58912,-2.57992 -0.73594,0.45003 -15.41367,8.57325 -15.44972,8.55046 -0.0249,-0.0158 -0.85533,-0.53603 -1.84533,-1.15616 z m 7.28074,-29.58908 c 3.50244,-2.63341 4.98899,-3.92532 4.91907,-4.275 -0.1838,-0.91924 -10.00974,-34.396877 -10.17594,-34.670072 -0.09,-0.147927 -0.53615,0.999573 -0.99148,2.55 -7.03076,23.940622 -9.37138,31.980272 -9.39909,32.284392 -0.0242,0.26585 9.98094,7.72633 10.54744,7.86483 0.0444,0.0109 2.3394,-1.67851 5.1,-3.75415 z"
     id="path3382"
     inkscape:connector-curvature="0" />
</svg>
