<?xml version="1.0" encoding="UTF-8" standalone="no"?>
<!-- Created with Inkscape (http://www.inkscape.org/) -->

<svg
   xmlns:dc="http://purl.org/dc/elements/1.1/"
   xmlns:cc="http://creativecommons.org/ns#"
   xmlns:rdf="http://www.w3.org/1999/02/22-rdf-syntax-ns#"
   xmlns:svg="http://www.w3.org/2000/svg"
   xmlns="http://www.w3.org/2000/svg"
   xmlns:sodipodi="http://sodipodi.sourceforge.net/DTD/sodipodi-0.dtd"
   xmlns:inkscape="http://www.inkscape.org/namespaces/inkscape"
   id="svg3360"
   version="1.1"
   inkscape:version="0.91 r13725"
   width="829.79999"
   height="171.89999"
   viewBox="0 0 829.79999 171.89999"
   sodipodi:docname="mitsubishi.svg">
  <metadata
     id="metadata3366">
    <rdf:RDF>
      <cc:Work
         rdf:about="">
        <dc:format>image/svg+xml</dc:format>
        <dc:type
           rdf:resource="http://purl.org/dc/dcmitype/StillImage" />
        <dc:title></dc:title>
      </cc:Work>
    </rdf:RDF>
  </metadata>
  <defs
     id="defs3364" />
  <sodipodi:namedview
     pagecolor="#ffffff"
     bordercolor="#666666"
     borderopacity="1"
     objecttolerance="10"
     gridtolerance="10"
     guidetolerance="10"
     inkscape:pageopacity="0"
     inkscape:pageshadow="2"
     inkscape:window-width="1280"
     inkscape:window-height="961"
     id="namedview3362"
     showgrid="false"
     inkscape:zoom="0.49409497"
     inkscape:cx="414.89999"
     inkscape:cy="85.949997"
     inkscape:window-x="-8"
     inkscape:window-y="-8"
     inkscape:window-maximized="1"
     inkscape:current-layer="svg3360" />
  <path
     style="fill:#000000"
     d="m 460.19596,138.65958 c -9.58691,-3.45132 -17.22156,-10.78174 -20.68385,-19.85959 -1.3235,-3.47014 -1.59548,-8.5278 -1.89962,-35.324995 l -0.35497,-31.274998 12.67124,0 12.67123,0 0,29.509297 c 0,28.812396 0.0478,29.604126 2.025,33.524996 3.90006,7.73403 12.17935,9.10135 18.26437,3.01633 1.65915,-1.65915 3.44053,-4.54303 3.95861,-6.40863 0.56296,-2.02717 0.94401,-14.708497 0.947,-31.516995 l 0.005,-28.124998 10.39291,0 10.39289,0 -0.26789,31.724998 -0.26791,31.724995 -2.53739,4.95 c -4.44771,8.67669 -11.56104,14.71494 -21.13385,17.93978 -7.14855,2.40818 -17.68134,2.46036 -24.18279,0.11981 z m 52.80403,-42.737352 0,-44.622231 25.05697,0 c 27.83133,0 30.31301,0.366942 38.28649,5.661028 2.54469,1.689578 5.83717,4.820728 7.31662,6.958112 2.35473,3.401899 2.66436,4.568065 2.48483,9.358506 -0.28384,7.573923 -3.76833,14.229077 -9.52017,18.182953 l -4.32528,2.97324 3.42528,1.428686 c 11.04927,4.608708 15.38964,19.526098 9.18784,31.577708 -2.68167,5.21112 -6.172,7.77139 -14.23422,10.44122 -5.41383,1.79282 -8.17407,1.99357 -31.80336,2.31311 l -25.875,0.3499 0,-44.622232 z m 44.6113,25.160152 c 3.85707,-1.61158 6.31056,-6.53142 5.10719,-10.24115 -1.29269,-3.98508 -5.70656,-5.53824 -15.74349,-5.53984 l -8.775,-0.001 0,7.95 c 0,4.37251 0.27,8.22001 0.60001,8.55 1.16994,1.16995 15.61232,0.619 18.81129,-0.71761 z m 0.91769,-38.557572 c 2.87001,-3.338209 2.87035,-7.810698 8.4e-4,-11.149625 -2.10448,-2.448761 -2.43816,-2.525187 -11.025,-2.525187 l -8.85483,0 -0.26547,7.120448 c -0.14602,3.916247 -0.0425,7.701513 0.23002,8.411705 0.39474,1.028663 2.2493,1.227867 9.11946,0.979551 8.15571,-0.29478 8.74183,-0.448812 10.79498,-2.836892 z m 83.66353,56.875002 c -8.50819,-1.23979 -18.71987,-5.33383 -23.63476,-9.47557 l -1.98677,-1.67425 4.79027,-7.90077 c 2.63466,-4.34543 5.03105,-8.14153 5.3253,-8.43578 0.29426,-0.29427 2.45923,0.73953 4.81105,2.29731 13.10115,8.67783 28.56239,7.55804 28.56239,-2.06867 0,-5.27147 -2.88022,-7.36844 -13.83397,-10.07198 -5.15045,-1.2712 -11.23775,-3.260546 -13.52735,-4.420772 -18.65199,-9.451679 -16.24155,-34.626338 4.28287,-44.730479 5.34245,-2.630075 6.94785,-2.972592 15.39909,-3.285433 10.81639,-0.400393 16.73045,0.664258 25.55015,4.599549 l 6.08079,2.713206 -4.17648,7.751913 c -2.29706,4.263552 -4.45161,8.061097 -4.78787,8.438991 -0.33626,0.377893 -3.18421,-0.59858 -6.32879,-2.169941 -10.83286,-5.413248 -20.71844,-3.352488 -20.71844,4.318997 0,3.992952 2.18941,5.291958 12.66874,7.51651 20.38323,4.326959 28.88141,13.384799 27.59489,29.412189 -1.59738,19.89998 -20.30618,30.9394 -46.07111,27.18498 z M 261.9,95.849994 l 0,-43.649997 12.15,0 12.15,0 0,43.649997 0,43.649996 -12.15,0 -12.15,0 0,-43.649996 z m 54,8.549996 0,-35.099994 -12.15,0 -12.15,0 0,-8.55 0,-8.549999 36,0 36,0 0,8.549999 0,8.55 -11.7,0 -11.7,0 0,35.099994 0,35.1 -12.15,0 -12.15,0 0,-35.1 z m 68.85,33.76613 c -7.69813,-1.69753 -14.98235,-4.60568 -19.21373,-7.67087 l -3.65304,-2.64625 5.07341,-8.34951 c 2.79036,-4.59222 5.14107,-8.45768 5.22377,-8.5899 0.0827,-0.13221 2.5397,1.19841 5.45998,2.95693 12.4399,7.491 24.38466,7.61561 27.42067,0.28604 2.56199,-6.18517 -1.24746,-9.72771 -13.7972,-12.83049 -11.29978,-2.793757 -16.00822,-5.123794 -20.37212,-10.081452 -6.14292,-6.978731 -6.95143,-16.35616 -2.25494,-26.154064 4.52987,-9.450326 15.08929,-15.523244 28.30123,-16.276554 4.67208,-0.266391 10.34518,0.005 13.63531,0.652295 6.2903,1.237542 16.38608,5.030953 17.67157,6.63996 0.5554,0.695183 -0.64912,3.815239 -3.57964,9.272248 l -4.41671,8.224506 -4.69939,-2.545293 c -6.63246,-3.592294 -12.28046,-4.726301 -16.54319,-3.321547 -6.22119,2.050146 -7.57771,9.088288 -2.27972,11.827985 1.37511,0.711094 4.9897,1.744333 8.03244,2.296086 13.09431,2.374452 21.94942,7.186262 26.02595,14.142344 1.90708,3.254166 2.51372,5.641016 2.83225,11.143436 0.68133,11.76972 -3.3714,20.12611 -12.68499,26.15533 -8.88743,5.75334 -23.34687,7.69906 -36.18191,4.86877 z m 204.74999,-42.316126 0,-43.649997 12.15,0 12.15,0 0,43.649997 0,43.649996 -12.15,0 -12.15,0 0,-43.649996 z m 101.7,-0.0261 0,-43.676115 11.925,0.251122 11.925,0.251096 0.24676,15.074999 0.24677,15.074999 11.67823,0 11.67824,0 0,-15.299999 0,-15.299999 12.15,0 12.15,0 0,43.649997 0,43.649996 -12.15,0 -12.15,0 0,-17.55 0,-17.55 -11.7,0 -11.7,0 0,17.55 0,17.55 -12.15,0 -12.15,0 0,-43.676123 z m 80.1,0.0261 0,-43.649997 11.7,0 11.7,0 0,43.649997 0,43.649996 -11.7,0 -11.7,0 0,-43.649996 z M 3.9795623,137.10902 C 4.5166169,135.70947 20.855129,107.60336 26.001192,99.226605 L 28.35,95.403216 l 24.148402,-0.0018 24.148404,-0.0018 -1.780622,2.925 C 73.274487,100.93927 64.649716,115.5713 54.707178,132.52461 l -3.56278,6.07538 -23.868489,0 c -21.8497296,0 -23.820098,-0.12611 -23.2963467,-1.49097 z M 162,95.399994 l 0,-43.199997 16.04302,0 16.04302,0 7.09141,22.049999 c 3.90027,12.127499 7.32142,22.049998 7.60255,22.049998 0.28113,0 2.49716,-6.783749 4.92451,-15.074999 2.42736,-8.291249 5.36967,-18.213749 6.53847,-22.049998 l 2.1251,-6.975 16.16596,0 16.16596,0 0,43.199997 0,43.199996 -10.78734,0 -10.78735,0 0.55231,-28.125 c 0.36991,-18.836842 0.25368,-27.827773 -0.35194,-27.224995 -0.49734,0.495 -4.47977,13.151249 -8.84985,28.124995 l -7.94561,27.225 -8.29279,0 -8.29278,0 -1.36307,-4.275 c -0.7497,-2.35125 -4.9335,-15.21 -9.29734,-28.575 L 181.35,81.449995 l -0.23765,28.574995 -0.23763,28.575 -9.43737,0 -9.43735,0 0,-43.199996 z M 97.84034,129.37499 c -2.675574,-4.57875 -7.401123,-12.78 -10.501232,-18.225 C 84.239,105.70499 80.903942,99.933744 79.92787,98.324994 l -1.774678,-2.925 24.817758,0 24.81776,0 2.48065,3.572334 c 1.36435,1.964782 3.65157,5.508532 5.08273,7.875002 1.43114,2.36646 3.49147,5.72016 4.5785,7.45266 8.0221,12.78552 13.96941,22.55197 13.96941,22.94007 0,0.25296 -11.51888,0.45993 -25.5975,0.45993 l -25.5975,0 -4.86466,-8.325 z M 73.782069,87.180371 C 71.680842,83.533664 69.245282,79.334995 68.369713,77.849995 67.494145,76.364996 65.97367,73.732496 64.99088,71.999996 64.00809,70.267496 60.987689,64.968214 58.278877,60.223814 l -4.925113,-8.626183 2.798118,-4.610877 C 66.728205,29.558561 76.859183,13.384242 77.413989,13.041353 c 0.728889,-0.450478 24.274501,34.794426 24.848891,37.195752 0.19903,0.832091 -5.268135,10.976561 -12.149265,22.543266 L 77.602482,93.810748 73.782069,87.180371 Z M 809.31676,74.704857 c -3.78978,-2.310656 -6.51004,-6.82554 -6.51004,-10.804861 0,-6.284914 6.23501,-12.589689 12.45725,-12.596635 7.2757,-0.0081 12.72655,5.339022 12.73265,12.490405 0.008,9.823153 -10.4474,15.93048 -18.67986,10.911091 z m 11.33501,-2.054601 c 1.15599,-0.570135 2.67474,-2.144568 3.375,-3.49874 2.55847,-4.947539 0.87171,-11.932839 -3.375,-13.976735 -3.98123,-1.916123 -5.36113,-2.05325 -8.30098,-0.824905 -7.10342,2.968002 -9.03661,10.597986 -4.10755,16.211875 3.65476,4.162546 7.046,4.733332 12.40853,2.088505 z m -9.75178,-8.75026 0,-7.199999 3.52639,0 c 1.93952,0 4.16702,0.24583 4.95,0.54629 1.91002,0.732942 1.8558,5.689248 -0.0777,7.103059 -1.38257,1.010957 -1.34213,1.321343 0.51128,3.924218 1.67663,2.354604 1.77194,2.826432 0.57096,2.826432 -0.7929,0 -2.27798,-1.4175 -3.30018,-3.15 -1.02223,-1.7325 -2.42607,-3.15 -3.11968,-3.15 -0.84126,0 -1.2611,1.04869 -1.2611,3.15 0,1.7325 -0.405,3.15 -0.9,3.15 -0.525,0 -0.9,-3 -0.9,-7.2 z m 7.65,-3.15 c 0,-1.372918 -0.69401,-1.866914 -2.925,-2.082022 -2.62921,-0.253503 -2.925,-0.04296 -2.925,2.082022 0,2.12498 0.29579,2.335526 2.925,2.082023 2.23099,-0.215108 2.925,-0.709104 2.925,-2.082023 z"
     id="path3370"
     inkscape:connector-curvature="0" />
</svg>
