<?xml version="1.0" encoding="iso-8859-1"?>
<!-- Generator: Adobe Illustrator 16.0.0, SVG Export Plug-In . SVG Version: 6.00 Build 0)  -->
<!DOCTYPE svg PUBLIC "-//W3C//DTD SVG 1.1//EN" "http://www.w3.org/Graphics/SVG/1.1/DTD/svg11.dtd">
<svg version="1.1" id="Capa_1" xmlns="http://www.w3.org/2000/svg" xmlns:xlink="http://www.w3.org/1999/xlink" x="0px" y="0px"
	 width="612px" height="612px" viewBox="0 0 612 612" style="enable-background:new 0 0 612 612;" xml:space="preserve">
<g>
	<g>
		<g>
			<path d="M296.391,57.425c5.258,0,9.56,4.282,9.56,9.56s-4.282,9.56-9.56,9.56H19.12v344.309h573.562V76.545H334.59
				c-5.277,0-9.561-4.282-9.561-9.56s4.281-9.56,9.561-9.56h267.412h0.239c5.276,0,9.56,4.282,9.56,9.56v363.189v0.239
				c0,5.276-4.302,9.56-9.56,9.56H9.819H9.56c-5.278,0-9.56-4.282-9.56-9.56V67.244v-0.259c0-5.278,4.282-9.56,9.56-9.56H296.391z"
				/>
			<path d="M286.811,9.607c0-5.258,4.262-9.52,9.52-9.52c5.238,0,9.52,4.262,9.52,9.52l0.04,57.358c0,5.258-4.262,9.52-9.52,9.52
				c-5.258,0-9.52-4.262-9.52-9.52L286.811,9.607z"/>
			<path d="M286.831,468.492c0-5.258,4.262-9.521,9.52-9.521c5.238,0,9.52,4.263,9.52,9.521l-0.02,95.657
				c0,5.236-4.262,9.52-9.52,9.52s-9.52-4.262-9.52-9.52L286.831,468.492z"/>
			<path d="M153.313,465.883c1.434-5.078,6.712-8.006,11.791-6.572c5.079,1.436,8.006,6.712,6.572,11.791l-38.198,133.875
				c-1.434,5.079-6.712,8.008-11.791,6.572c-5.059-1.434-8.006-6.711-6.572-11.79L153.313,465.883z"/>
			<path d="M421.005,471.102c-1.434-5.079,1.494-10.355,6.572-11.791c5.059-1.434,10.355,1.494,11.791,6.572l38.278,133.876
				c1.434,5.06-1.494,10.356-6.572,11.79c-5.079,1.435-10.356-1.493-11.79-6.572L421.005,471.102z"/>
			<path d="M248.572,372.896c0,5.277-4.282,9.561-9.56,9.561c-5.277,0-9.56-4.282-9.56-9.561V248.619H95.617v124.275
				c0,5.277-4.282,9.561-9.56,9.561c-5.278,0-9.56-4.282-9.56-9.561V239.298v-0.239c0-5.278,4.282-9.56,9.56-9.56h152.696h0.239
				c5.277,0,9.56,4.282,9.56,9.56v133.835L248.572,372.896L248.572,372.896z"/>
			<path d="M554.423,372.896c0,5.259-4.263,9.521-9.521,9.521c-5.259,0-9.521-4.262-9.521-9.521l-0.06-162.535H430.206
				c-5.277,0-9.56-4.282-9.56-9.56c0-5.278,4.281-9.56,9.56-9.56h114.637v0.04c5.258,0,9.521,4.262,9.521,9.52L554.423,372.896z"/>
			<path d="M401.468,372.896c0,5.259-4.263,9.521-9.521,9.521c-5.237,0-9.521-4.262-9.521-9.521l-0.02-219.873H248.552v47.798
				c0,5.278-4.282,9.56-9.56,9.56c-5.278,0-9.56-4.282-9.56-9.56v-57.119v-0.259c0-5.277,4.282-9.56,9.56-9.56h152.935v0.04
				c5.258,0,9.521,4.262,9.521,9.52L401.468,372.896z"/>
			<path d="M9.739,478.231c-5.277,0-9.56-4.281-9.56-9.56s4.282-9.56,9.56-9.56H602.44c5.276,0,9.56,4.28,9.56,9.56
				c0,5.258-4.282,9.56-9.56,9.56H9.739z"/>
		</g>
	</g>
</g>
<g>
</g>
<g>
</g>
<g>
</g>
<g>
</g>
<g>
</g>
<g>
</g>
<g>
</g>
<g>
</g>
<g>
</g>
<g>
</g>
<g>
</g>
<g>
</g>
<g>
</g>
<g>
</g>
<g>
</g>
</svg>
